<svg width="20" height="20" viewBox="0 0 20 20" fill="none" xmlns="http://www.w3.org/2000/svg">
<g clip-path="url(#clip0_410_2816)">
<path d="M19.4902 10.1777C19.4902 9.3993 19.4255 8.83126 19.2857 8.24219H10.1895V11.7556H15.5287C15.4211 12.6287 14.8398 13.9436 13.548 14.8272L13.5299 14.9448L16.406 17.1221L16.6052 17.1415C18.4352 15.49 19.4902 13.06 19.4902 10.1777Z" fill="#4285F4"/>
<path d="M10.189 19.4347C12.8048 19.4347 15.0008 18.5931 16.6048 17.1415L13.5476 14.8272C12.7295 15.3847 11.6315 15.7739 10.189 15.7739C7.62706 15.7739 5.4526 14.1225 4.67746 11.8398L4.56385 11.8492L1.57329 14.1109L1.53418 14.2171C3.12734 17.3098 6.39983 19.4347 10.189 19.4347Z" fill="#34A853"/>
<path d="M4.67765 11.8398C4.47312 11.2508 4.35476 10.6196 4.35476 9.96739C4.35476 9.31516 4.47313 8.68402 4.66689 8.09495L4.66147 7.96949L1.63344 5.67151L1.53437 5.71756C0.877746 7.00093 0.500977 8.4421 0.500977 9.96739C0.500977 11.4927 0.877746 12.9338 1.53437 14.2172L4.67765 11.8398Z" fill="#FBBC05"/>
<path d="M10.189 4.16069C12.0083 4.16069 13.2354 4.9286 13.9352 5.57032L16.6694 2.96152C14.9901 1.43622 12.8048 0.5 10.189 0.5C6.39983 0.5 3.12734 2.62488 1.53418 5.71753L4.6667 8.09492C5.4526 5.81224 7.62706 4.16069 10.189 4.16069Z" fill="#EB4335"/>
</g>
<defs>
<clipPath id="clip0_410_2816">
<rect width="19" height="19" fill="white" transform="translate(0.5 0.5)"/>
</clipPath>
</defs>
</svg>
