<svg width="13" height="12" viewBox="0 0 13 12" fill="none" xmlns="http://www.w3.org/2000/svg">
<path d="M6.5 10.8286L6.68392 10.9979L6.68404 10.9978L6.68451 10.9973L6.68638 10.9952L6.69383 10.9872L6.72301 10.9555L6.83489 10.8342C6.93186 10.729 7.07173 10.5774 7.24331 10.3918C7.58646 10.0203 8.05638 9.51246 8.56349 8.96649C9.57867 7.87351 10.7399 6.63117 11.3327 6.024L11.3327 6.02399C11.9007 5.44224 12.25 4.64458 12.25 3.77467C12.25 2.0279 10.8075 0.620117 9.03846 0.620117C8.00497 0.620117 7.08703 1.10132 6.5 1.84717C5.91297 1.10132 4.99503 0.620117 3.96154 0.620117C2.19245 0.620117 0.75 2.0279 0.75 3.77467C0.75 4.64454 1.09908 5.44223 1.6673 6.02403C2.26017 6.63121 3.42134 7.87352 4.43651 8.96649C4.94362 9.51246 5.41354 10.0203 5.75669 10.3918C5.92827 10.5774 6.06814 10.729 6.16511 10.8342L6.27699 10.9555L6.30617 10.9872L6.31362 10.9952L6.31549 10.9973L6.31596 10.9978L6.31608 10.9979L6.5 10.8286ZM6.5 10.8286L6.68388 10.998L6.5 11.1976L6.31612 10.998L6.5 10.8286Z" fill="#0D7DCF" stroke="#0D7DCF" stroke-width="0.5"/>
</svg>
