<svg width="13" height="12" viewBox="0 0 13 12" fill="none" xmlns="http://www.w3.org/2000/svg">
<path fill-rule="evenodd" clip-rule="evenodd" d="M6.43962 2.55538L6.7995 2.77473L6.00977 4.0704L5.22003 2.77473C4.84661 2.16207 4.19578 1.79679 3.4713 1.79679C2.34047 1.79679 1.43284 2.70156 1.43284 3.79679V3.79851C1.431 4.33537 1.64058 4.85345 2.01982 5.24341C2.88248 6.13042 4.93659 8.35478 6.00977 9.52056C7.08295 8.35478 9.13706 6.13041 9.99971 5.2434L10.3007 5.53613M10.3626 5.58742C10.8296 5.10465 11.0867 4.46904 11.0867 3.79679C11.0867 2.41825 9.94798 1.29679 8.54823 1.29679C7.65046 1.29679 6.8373 1.752 6.37255 2.5145L6.00977 3.10971L5.64698 2.5145C5.18223 1.752 4.36907 1.29679 3.4713 1.29679C2.07155 1.29679 0.932843 2.41825 0.932843 3.79679C0.93055 4.46339 1.19004 5.10496 1.6569 5.58739C1.65689 5.58737 1.65691 5.5874 1.6569 5.58739C1.65838 5.58891 1.6599 5.59048 1.66138 5.592C2.52634 6.48138 4.6046 8.73228 5.67007 9.8898C5.77594 10.0048 5.87181 10.109 5.9555 10.2001C5.9742 10.2204 5.9923 10.2401 6.00977 10.2591C6.02723 10.2401 6.04533 10.2204 6.06403 10.2001C6.14772 10.109 6.24359 10.0048 6.34946 9.8898C7.41493 8.73228 9.49319 6.48138 10.3582 5.592C10.3596 5.59048 10.3611 5.58894 10.3626 5.58742C10.3626 5.58741 10.3626 5.58743 10.3626 5.58742ZM6.34924 10.5105C6.33897 10.5217 6.32891 10.5327 6.31905 10.5434C6.12437 10.7552 6.00977 10.8801 6.00977 10.8801C6.00977 10.8801 5.89516 10.7552 5.70048 10.5434C5.69062 10.5327 5.68056 10.5217 5.67029 10.5105C4.77041 9.53168 2.32681 6.87903 1.36039 5.88473C1.36039 5.88473 1.36039 5.88473 1.36039 5.88473C1.3589 5.88319 1.35741 5.88166 1.35592 5.88013C0.831516 5.34096 0.509766 4.60221 0.509766 3.79679C0.509766 3.79631 0.509766 3.79582 0.509766 3.79534C0.510564 2.18517 1.83618 0.880127 3.4713 0.880127C4.35707 0.880127 5.15007 1.26434 5.69211 1.87164C5.79114 1.9826 5.8818 2.10101 5.96312 2.22589C5.9768 2.24691 5.99022 2.2681 6.00338 2.28948C6.00337 2.28948 6.00338 2.28948 6.00338 2.28948C6.00454 2.29137 6.0057 2.29326 6.00686 2.29515C6.00783 2.29674 6.0088 2.29833 6.00977 2.29992C6.01073 2.29833 6.01171 2.29674 6.01268 2.29515C6.01383 2.29326 6.01499 2.29137 6.01615 2.28949C6.01615 2.28949 6.01615 2.28948 6.01615 2.28949C6.0293 2.26811 6.04273 2.24691 6.05641 2.22589C6.13773 2.10101 6.22839 1.9826 6.32743 1.87164C6.86946 1.26434 7.66246 0.880127 8.54823 0.880127C10.1838 0.880127 11.5098 2.18596 11.5098 3.79679C11.5098 4.60221 11.1878 5.34096 10.6636 5.88013C10.6621 5.88163 10.6607 5.88314 10.6592 5.88465C10.6592 5.88468 10.6592 5.88463 10.6592 5.88465C9.69279 6.87895 7.24912 9.53168 6.34924 10.5105ZM6.06851 10.934L6.37827 11.2181L6.52912 11.0538C6.62606 10.9482 6.76588 10.7961 6.9374 10.6097C7.28045 10.2368 7.75022 9.72698 8.25714 9.17894C9.27291 8.08076 10.4318 6.83572 11.0221 6.22869C11.6336 5.59973 12.0098 4.73722 12.0098 3.79679C12.0098 1.90265 10.4528 0.380127 8.54823 0.380127C7.54431 0.380127 6.6414 0.80346 6.00977 1.47818C5.37813 0.80346 4.47522 0.380127 3.4713 0.380127C1.56677 0.380127 0.00976562 1.90265 0.00976562 3.79679C0.00976562 4.73712 0.38564 5.59964 0.99745 6.22869M6.06851 10.934L6.37827 11.2181L6.00977 11.6198L5.6413 11.2181L5.49041 11.0538C5.39348 10.9482 5.25365 10.7961 5.08213 10.6097C4.73908 10.2368 4.26931 9.72698 3.7624 9.17894C2.74665 8.08078 1.58772 6.83573 0.99745 6.22869M10.3007 5.53613L9.99971 5.2434C9.99968 5.24343 9.99974 5.24337 9.99971 5.2434C10.3787 4.85346 10.5867 4.34104 10.5867 3.79679C10.5867 2.70156 9.67906 1.79679 8.54823 1.79679C7.82375 1.79679 7.17292 2.16207 6.7995 2.77473L6.43962 2.55538" fill="#373333"/>
</svg>
