<svg width="13" height="14" viewBox="0 0 13 14" fill="none" xmlns="http://www.w3.org/2000/svg">
<g clip-path="url(#clip0_410_2477)">
<path fill-rule="evenodd" clip-rule="evenodd" d="M12.7291 1.40342C12.7302 1.43917 12.724 1.47477 12.7109 1.50805C12.6978 1.54134 12.6781 1.57162 12.653 1.59707C12.6413 1.60844 12.627 1.61386 12.614 1.62279L11.8854 2.35134L12.0723 2.53821C12.0853 2.54715 12.0999 2.55257 12.1113 2.56394C12.1364 2.58934 12.1561 2.61958 12.1692 2.65282C12.1823 2.68606 12.1885 2.72161 12.1874 2.75732C12.1885 2.79307 12.1823 2.82866 12.1692 2.86195C12.1561 2.89524 12.1364 2.92552 12.1113 2.95096C12.0999 2.96234 12.0853 2.96775 12.0723 2.97669L3.48309 11.5664C3.45362 11.6259 3.40315 11.6723 3.34145 11.6967L0.687279 12.7378C0.671591 12.7458 0.655175 12.7522 0.638258 12.757L0.635008 12.7584C0.632841 12.7592 0.630404 12.7586 0.628508 12.7595C0.578494 12.7758 0.524642 12.7762 0.474404 12.7605C0.468987 12.7589 0.463841 12.76 0.458154 12.7581C0.455987 12.7573 0.454633 12.7554 0.452466 12.7546C0.429024 12.7452 0.407118 12.7323 0.387466 12.7164C0.376904 12.7088 0.365799 12.702 0.356862 12.6931C0.347924 12.6842 0.341154 12.6731 0.33357 12.6625C0.317725 12.6428 0.304859 12.6209 0.295383 12.5975C0.294299 12.5953 0.292674 12.594 0.291862 12.5918C0.289966 12.5864 0.291049 12.581 0.289424 12.5753C0.282067 12.5506 0.278326 12.525 0.27832 12.4992C0.27832 12.4721 0.283737 12.4469 0.290508 12.4215C0.291591 12.4193 0.290779 12.4171 0.291591 12.4152L0.293216 12.4117C0.298633 12.3946 0.303779 12.3784 0.312174 12.3627L1.35326 9.70852C1.37783 9.64684 1.42432 9.5964 1.4838 9.56688L9.00294 2.04827C8.96767 1.93521 8.89726 1.83635 8.80194 1.76607C8.70662 1.69578 8.59136 1.65774 8.47292 1.65746C8.30799 1.65746 8.16119 1.73032 8.05909 1.84407L8.05828 1.84352L7.17807 2.72373L7.17888 2.72455L5.3272 4.57623C5.27709 4.62328 5.21064 4.64898 5.14191 4.6479C5.07319 4.64681 5.00758 4.61903 4.95898 4.57043C4.91038 4.52183 4.88259 4.45622 4.88151 4.3875C4.88043 4.31877 4.90613 4.25232 4.95317 4.20221L7.67478 1.48088C7.67938 1.47627 7.68507 1.47492 7.68994 1.47086C7.7906 1.36413 7.91199 1.27908 8.04667 1.22091C8.18135 1.16274 8.32649 1.13269 8.47319 1.13259C8.8659 1.13259 9.20417 1.34492 9.39294 1.65855L10.0738 0.977941C10.0828 0.965212 10.0882 0.950587 10.0995 0.939212C10.1249 0.913969 10.1552 0.894193 10.1885 0.881104C10.2218 0.868015 10.2574 0.86189 10.2932 0.863107C10.329 0.86189 10.3646 0.868015 10.3979 0.881104C10.4312 0.894193 10.4615 0.913969 10.4868 0.939212C10.4982 0.950587 10.5036 0.965212 10.5126 0.977941L10.6994 1.16482L11.428 0.436274C11.4369 0.423545 11.4423 0.40892 11.4537 0.397545C11.4791 0.372303 11.5094 0.352527 11.5427 0.339437C11.576 0.326348 11.6116 0.320223 11.6474 0.321441C11.6831 0.320223 11.7188 0.326348 11.7521 0.339437C11.7854 0.352527 11.8156 0.372303 11.841 0.397545C11.8524 0.40892 11.8578 0.423545 11.8667 0.436274L12.6148 1.18432C12.6278 1.19325 12.6421 1.19867 12.6538 1.21004C12.6786 1.2356 12.6981 1.26588 12.711 1.29909C12.724 1.33231 12.7301 1.36779 12.7291 1.40342ZM1.04938 12.0011L2.77622 11.3235L1.72674 10.274L1.04938 12.0011ZM10.2927 1.50661L2.00001 9.79925L3.25099 11.0502L11.5436 2.75759L10.2927 1.50661ZM11.6468 0.964941L11.0729 1.53884L11.5114 1.97732L12.0853 1.40342L11.6468 0.964941Z" fill="#373333"/>
<path fill-rule="evenodd" clip-rule="evenodd" d="M12.7925 1.74092C12.7709 1.76201 12.7495 1.77554 12.7376 1.78259L12.1681 2.35212L12.1958 2.37982C12.2079 2.38696 12.2303 2.40105 12.2525 2.4233L12.2533 2.42409C12.2975 2.46875 12.3321 2.52191 12.3551 2.58036C12.3774 2.63692 12.3883 2.69729 12.3873 2.75803C12.3883 2.81883 12.3774 2.87926 12.3552 2.93589C12.3322 2.99438 12.2975 3.0476 12.2534 3.09231L12.2525 3.09317C12.2303 3.11541 12.2079 3.1295 12.1958 3.13665L3.64425 11.6887C3.59147 11.7768 3.51095 11.8455 3.41479 11.8835L0.767836 12.9217C0.747715 12.9314 0.726943 12.9396 0.705673 12.9463C0.705223 12.9464 0.704163 12.9468 0.703713 12.9469C0.69266 12.951 0.682557 12.9536 0.674113 12.9553C0.595848 12.9777 0.513024 12.9786 0.434341 12.9579C0.427805 12.9562 0.421297 12.9543 0.414822 12.9523L0.474208 12.7613L0.416739 12.9529C0.429662 12.9568 0.440392 12.9584 0.446856 12.9592L0.453325 12.9598C0.45145 12.9597 0.443487 12.9592 0.434341 12.9579C0.434274 12.9579 0.434408 12.9579 0.434341 12.9579C0.423934 12.9564 0.410234 12.9538 0.394713 12.9486L0.387685 12.9463C0.377067 12.9423 0.367982 12.9377 0.360458 12.9336C0.366121 12.9361 0.371839 12.9386 0.37761 12.9409L0.382046 12.9426C0.380534 12.9421 0.379055 12.9415 0.37761 12.9409C0.362747 12.9349 0.351452 12.9282 0.344234 12.9235C0.340314 12.9209 0.337286 12.9187 0.335548 12.9174C0.334629 12.9168 0.333805 12.9161 0.333378 12.9158M0.387271 12.7172C0.406922 12.7331 0.428829 12.7459 0.452271 12.7554C0.453354 12.7558 0.454234 12.7565 0.455115 12.7571C0.455995 12.7578 0.456875 12.7585 0.457958 12.7589M0.628313 12.7602C0.629266 12.7598 0.630357 12.7598 0.631481 12.7597C0.632592 12.7596 0.633736 12.7596 0.634812 12.7592L0.638063 12.7578C0.65498 12.753 0.671395 12.7465 0.687083 12.7386L3.34125 11.6975C3.40296 11.6731 3.45343 11.6267 3.4829 11.5672L12.0721 2.97747C12.0768 2.97423 12.0818 2.97145 12.0867 2.96868C12.0953 2.96382 12.1039 2.95899 12.1111 2.95174C12.1362 2.9263 12.1559 2.89602 12.169 2.86273C12.1821 2.82944 12.1883 2.79385 12.1872 2.7581C12.1883 2.72239 12.1821 2.68684 12.169 2.6536C12.1559 2.62036 12.1362 2.59012 12.1111 2.56472C12.1039 2.55748 12.0953 2.55265 12.0867 2.54779C12.0818 2.54502 12.0768 2.54224 12.0721 2.53899L11.8852 2.35212L12.6138 1.62358C12.6185 1.62032 12.6234 1.61754 12.6283 1.61476C12.6369 1.60991 12.6454 1.60508 12.6528 1.59785C12.6779 1.57241 12.6976 1.54212 12.7107 1.50884C12.7238 1.47555 12.73 1.43995 12.7289 1.4042C12.7299 1.36857 12.7238 1.33309 12.7108 1.29988C12.6979 1.26666 12.6784 1.23638 12.6536 1.21083C12.6462 1.20359 12.6377 1.19877 12.6291 1.19391C12.6242 1.19114 12.6193 1.18835 12.6146 1.1851L11.8665 0.437055C11.8632 0.432337 11.8604 0.427358 11.8576 0.422381C11.8528 0.41393 11.848 0.405485 11.8408 0.398326C11.8154 0.373084 11.7852 0.353308 11.7519 0.340219C11.7186 0.327129 11.6829 0.321004 11.6472 0.322222C11.6114 0.321004 11.5758 0.327129 11.5425 0.340219C11.5092 0.353308 11.4789 0.373084 11.4535 0.398326C11.4464 0.405485 11.4416 0.41393 11.4368 0.422381C11.4339 0.427358 11.4311 0.432337 11.4278 0.437055L10.6992 1.1656L10.5124 0.978722C10.5091 0.974003 10.5062 0.969024 10.5034 0.964046C10.4986 0.955596 10.4938 0.947151 10.4866 0.939993C10.4613 0.914751 10.431 0.894975 10.3977 0.881885C10.3644 0.868796 10.3288 0.862671 10.293 0.863889C10.2572 0.862671 10.2216 0.868796 10.1883 0.881885C10.155 0.894975 10.1247 0.914751 10.0994 0.939993C10.0922 0.947151 10.0874 0.955596 10.0826 0.964046C10.0798 0.969024 10.0769 0.974003 10.0736 0.978722L9.39275 1.65933C9.35778 1.60123 9.31769 1.54661 9.27306 1.49618C9.07679 1.27432 8.79296 1.13337 8.473 1.13337C8.32629 1.13347 8.18115 1.16352 8.04647 1.22169C7.91179 1.27986 7.7904 1.36491 7.68975 1.47164C7.68755 1.47347 7.68519 1.47475 7.68284 1.47603C7.67997 1.47758 7.67711 1.47913 7.67458 1.48166L4.95298 4.20299C4.90593 4.2531 4.88023 4.31955 4.88132 4.38828C4.8824 4.457 4.91018 4.52261 4.95878 4.57121C5.00739 4.61981 5.07299 4.64759 5.14172 4.64868C5.21044 4.64976 5.27689 4.62406 5.327 4.57701L7.17869 2.72533L7.17787 2.72451L8.05808 1.84431C8.16019 1.73056 8.30779 1.65824 8.47273 1.65824C8.59116 1.65852 8.70642 1.69656 8.80174 1.76685C8.89706 1.83714 8.96748 1.936 9.00275 2.04906L1.4836 9.56766C1.42413 9.59718 1.37764 9.64762 1.35306 9.7093L0.311979 12.3635C0.303615 12.3791 0.298476 12.3953 0.293082 12.4123L0.291396 12.416C0.29102 12.4169 0.290992 12.4178 0.290963 12.4188C0.290929 12.4199 0.290894 12.4211 0.290312 12.4222C0.283542 12.4477 0.278125 12.4729 0.278125 12.5C0.278131 12.5257 0.281871 12.5514 0.289229 12.5761C0.29 12.5788 0.290162 12.5814 0.290321 12.584C0.290497 12.5869 0.290671 12.5898 0.291667 12.5926C0.292116 12.5938 0.292814 12.5947 0.293532 12.5957C0.294111 12.5965 0.294703 12.5973 0.295187 12.5983C0.304663 12.6217 0.31753 12.6436 0.333375 12.6633C0.33523 12.6659 0.337036 12.6685 0.338837 12.6711C0.3444 12.6791 0.349915 12.6871 0.356667 12.6939C0.36342 12.7006 0.371409 12.7062 0.379468 12.7117C0.382075 12.7135 0.384689 12.7153 0.387271 12.7172M0.117144 12.6905C0.112969 12.6829 0.108465 12.6737 0.104401 12.6628L0.102849 12.6587C0.0969402 12.6418 0.0941501 12.627 0.0926514 12.6163C0.0925659 12.6157 0.0924838 12.6151 0.0924052 12.6145C0.0829367 12.5771 0.0781339 12.5386 0.078125 12.5C0.078125 12.4523 0.0867316 12.4111 0.0943357 12.3812C0.0962974 12.3704 0.0996199 12.3571 0.105419 12.3424C0.110058 12.328 0.117664 12.3057 0.129138 12.2819L1.16726 9.63528C1.20548 9.53936 1.27411 9.45905 1.36209 9.40633L8.76151 2.00745C8.73984 1.97713 8.71342 1.95021 8.68305 1.92782C8.62204 1.88284 8.54828 1.85846 8.47248 1.85824C8.3684 1.85832 8.27458 1.90397 8.20773 1.97844L8.09206 2.10731L8.08358 2.10166L7.46072 2.72451L7.46153 2.72533L5.46396 4.7229C5.37598 4.8055 5.25923 4.85055 5.13856 4.84865C5.01789 4.84675 4.9027 4.79797 4.81736 4.71263C4.73203 4.62729 4.68324 4.5121 4.68134 4.39143C4.67944 4.27076 4.72457 4.15408 4.80717 4.0661L4.81149 4.06149L7.53316 1.34024C7.54319 1.33021 7.55333 1.32211 7.56206 1.31591C7.67779 1.19803 7.81536 1.10365 7.96718 1.03808C8.12685 0.96912 8.29893 0.933488 8.47286 0.933368C8.84953 0.933368 9.18305 1.09769 9.41471 1.35459L9.91481 0.854683C9.9219 0.842759 9.93592 0.820582 9.95793 0.798572C10.0027 0.754054 10.0564 0.71883 10.1151 0.695745C10.1718 0.67349 10.2322 0.66265 10.293 0.663823C10.3538 0.66265 10.4142 0.67349 10.4709 0.695745C10.5296 0.718829 10.583 0.753707 10.6277 0.798227C10.6497 0.820247 10.6641 0.842779 10.6712 0.854699L10.6992 0.882754L11.269 0.313032C11.2761 0.301112 11.2901 0.278925 11.3121 0.256905C11.3568 0.212387 11.4106 0.177163 11.4693 0.154078C11.5259 0.131823 11.5864 0.120983 11.6472 0.122156C11.708 0.120983 11.7684 0.131823 11.825 0.154078C11.8838 0.177163 11.9372 0.21204 11.9819 0.25656C12.0039 0.27858 12.0183 0.301112 12.0254 0.313032L12.7384 1.02608C12.7503 1.03313 12.7717 1.04666 12.7933 1.06775L12.797 1.07132C12.8405 1.11606 12.8746 1.16914 12.8972 1.22731C12.9191 1.28363 12.9299 1.34365 12.9289 1.40404C12.93 1.46487 12.9191 1.52533 12.8968 1.58199C12.8738 1.64049 12.8392 1.69371 12.795 1.73842L12.7925 1.74092M0.117144 12.6905C0.132022 12.7233 0.150736 12.7543 0.172904 12.7828L0.174378 12.7849L0.182267 12.7961C0.188693 12.8051 0.199812 12.8199 0.215245 12.8353C0.230678 12.8507 0.245496 12.8619 0.254412 12.8683L0.265649 12.8762L0.267649 12.8776C0.29625 12.8999 0.32741 12.9187 0.360458 12.9336C0.355123 12.9307 0.350597 12.9279 0.346925 12.9254C0.34254 12.9226 0.339059 12.9201 0.336875 12.9184L0.335548 12.9174M1.04919 12.0019L1.72654 10.2748L2.77602 11.3243L1.04919 12.0019ZM1.40268 11.6483L2.41859 11.2497L1.80117 10.6323L1.40268 11.6483ZM10.2925 1.50739L1.99981 9.80003L3.25079 11.051L11.5434 2.75837L10.2925 1.50739ZM11.2606 2.75837L10.2925 1.79023L2.28266 9.80003L3.25079 10.7682L11.2606 2.75837ZM11.6466 0.965722L11.0727 1.53962L11.5112 1.9781L12.0851 1.4042L11.6466 0.965722ZM11.6466 1.24856L11.3556 1.53962L11.5112 1.69525L11.8023 1.4042L11.6466 1.24856Z" fill="#373333"/>
</g>
<defs>
<clipPath id="clip0_410_2477">
<rect width="13" height="13" fill="white" transform="translate(0 0.0429688)"/>
</clipPath>
</defs>
</svg>
