<svg width="278" height="221" viewBox="0 0 278 221" fill="none" xmlns="http://www.w3.org/2000/svg">
<rect width="278" height="221" rx="5" fill="#BACED2" fill-opacity="0.88"/>
<g clip-path="url(#clip0_410_2073)">
<path d="M139 67.1958C114.715 67.1958 95 86.8223 95 110.998C95 135.173 114.715 154.799 139 154.799C163.285 154.799 183 135.173 183 110.998C183 86.8223 163.285 67.1958 139 67.1958ZM139 69.8479C161.844 69.8479 180.336 88.2568 180.336 110.998C180.336 133.738 161.844 152.147 139 152.147C116.156 152.147 97.6641 133.738 97.6641 110.998C97.6641 88.2568 116.156 69.8479 139 69.8479ZM156.789 92.1765C156.526 92.2694 156.3 92.4446 156.145 92.6759C155.99 92.9072 155.915 93.1822 155.93 93.4598V97.3095H152.062C152.005 97.3057 151.948 97.3057 151.891 97.3095C151.562 97.3487 151.26 97.512 151.049 97.7659C150.837 98.0198 150.731 98.3448 150.753 98.674C150.775 99.0031 150.923 99.3113 151.167 99.535C151.411 99.7587 151.731 99.8807 152.062 99.8761H155.93V103.726C155.915 103.903 155.937 104.082 155.995 104.251C156.052 104.42 156.145 104.575 156.266 104.706C156.387 104.837 156.534 104.942 156.698 105.014C156.862 105.086 157.04 105.123 157.219 105.123C157.398 105.123 157.575 105.086 157.739 105.014C157.903 104.942 158.05 104.837 158.171 104.706C158.293 104.575 158.385 104.42 158.443 104.251C158.501 104.082 158.523 103.903 158.508 103.726V99.8761H162.375C162.553 99.8911 162.733 99.8692 162.903 99.8115C163.072 99.7539 163.228 99.6618 163.36 99.5412C163.492 99.4205 163.597 99.274 163.669 99.1107C163.741 98.9475 163.778 98.7711 163.778 98.5928C163.778 98.4145 163.741 98.2381 163.669 98.0749C163.597 97.9116 163.492 97.765 163.36 97.6444C163.228 97.5238 163.072 97.4317 162.903 97.3741C162.733 97.3164 162.553 97.2945 162.375 97.3095H158.508V93.4598C158.507 93.1198 158.37 92.7941 158.129 92.5537C157.887 92.3133 157.56 92.1777 157.219 92.1765C157.105 92.1613 156.989 92.1613 156.875 92.1765C156.846 92.1756 156.818 92.1756 156.789 92.1765ZM137.797 97.3095C132.811 97.3095 128.773 101.415 128.773 106.378C128.773 111.341 132.811 115.361 137.797 115.361C142.782 115.361 146.906 111.341 146.906 106.378C146.906 101.415 142.782 97.3095 137.797 97.3095ZM137.797 99.8761C141.384 99.8761 144.328 102.807 144.328 106.378C144.328 109.949 141.384 112.794 137.797 112.794C134.209 112.794 131.352 109.949 131.352 106.378C131.352 102.807 134.209 99.8761 137.797 99.8761ZM137.797 117.927C127.893 117.927 119.75 124.748 119.75 133.412H122.328C122.328 126.381 129.068 120.494 137.797 120.494C146.526 120.494 153.352 126.381 153.352 133.412H155.93C155.93 124.748 147.701 117.927 137.797 117.927Z" fill="#373333"/>
</g>
<defs>
<clipPath id="clip0_410_2073">
<rect width="88" height="87.6036" fill="white" transform="translate(95 67.1958)"/>
</clipPath>
</defs>
</svg>
