<svg width="22" height="22" viewBox="0 0 22 22" fill="none" xmlns="http://www.w3.org/2000/svg">
<g id="house">
<g id="Vector">
<mask id="path-1-outside-1_770_663" maskUnits="userSpaceOnUse" x="-0.5" y="0.0722656" width="23" height="22" fill="black">
<rect fill="white" x="-0.5" y="0.0722656" width="23" height="22"/>
<path d="M18.8749 20.9274H12.75V15.24H9.25004V20.9274H3.12513V8.88162C3.12513 8.76559 3.17122 8.65432 3.25327 8.57227C3.33531 8.49022 3.44659 8.44413 3.56262 8.44413C3.67865 8.44413 3.78993 8.49022 3.87198 8.57227C3.95402 8.65432 4.00012 8.76559 4.00012 8.88162L4.00012 20.0525H8.37505V14.365H13.625V20.0525H17.9999L17.9998 8.88162C17.9998 8.76559 18.0459 8.65432 18.128 8.57227C18.21 8.49022 18.3213 8.44413 18.4373 8.44413C18.5534 8.44413 18.6647 8.49022 18.7467 8.57227C18.8287 8.65432 18.8748 8.76559 18.8748 8.88162L18.8749 20.9274Z"/>
<path d="M21.0624 11.7401C20.9498 11.7403 20.8415 11.6968 20.7601 11.6189L11.0001 2.28325L1.24006 11.6189C1.15623 11.6992 1.04396 11.7428 0.927942 11.7403C0.81193 11.7377 0.701679 11.6892 0.621444 11.6054C0.541209 11.5215 0.497562 11.4093 0.500105 11.2932C0.502649 11.1772 0.551174 11.067 0.635006 10.9867L11.0001 1.07227L21.3647 10.9863C21.4279 11.0467 21.4716 11.1246 21.4901 11.21C21.5086 11.2954 21.5011 11.3844 21.4686 11.4655C21.436 11.5466 21.38 11.6161 21.3076 11.665C21.2352 11.714 21.1498 11.7401 21.0624 11.7401Z"/>
</mask>
<path d="M18.8749 20.9274H12.75V15.24H9.25004V20.9274H3.12513V8.88162C3.12513 8.76559 3.17122 8.65432 3.25327 8.57227C3.33531 8.49022 3.44659 8.44413 3.56262 8.44413C3.67865 8.44413 3.78993 8.49022 3.87198 8.57227C3.95402 8.65432 4.00012 8.76559 4.00012 8.88162L4.00012 20.0525H8.37505V14.365H13.625V20.0525H17.9999L17.9998 8.88162C17.9998 8.76559 18.0459 8.65432 18.128 8.57227C18.21 8.49022 18.3213 8.44413 18.4373 8.44413C18.5534 8.44413 18.6647 8.49022 18.7467 8.57227C18.8287 8.65432 18.8748 8.76559 18.8748 8.88162L18.8749 20.9274Z" fill="#373333"/>
<path d="M21.0624 11.7401C20.9498 11.7403 20.8415 11.6968 20.7601 11.6189L11.0001 2.28325L1.24006 11.6189C1.15623 11.6992 1.04396 11.7428 0.927942 11.7403C0.81193 11.7377 0.701679 11.6892 0.621444 11.6054C0.541209 11.5215 0.497562 11.4093 0.500105 11.2932C0.502649 11.1772 0.551174 11.067 0.635006 10.9867L11.0001 1.07227L21.3647 10.9863C21.4279 11.0467 21.4716 11.1246 21.4901 11.21C21.5086 11.2954 21.5011 11.3844 21.4686 11.4655C21.436 11.5466 21.38 11.6161 21.3076 11.665C21.2352 11.714 21.1498 11.7401 21.0624 11.7401Z" fill="#373333"/>
<path d="M18.8749 20.9274H12.75V15.24H9.25004V20.9274H3.12513V8.88162C3.12513 8.76559 3.17122 8.65432 3.25327 8.57227C3.33531 8.49022 3.44659 8.44413 3.56262 8.44413C3.67865 8.44413 3.78993 8.49022 3.87198 8.57227C3.95402 8.65432 4.00012 8.76559 4.00012 8.88162L4.00012 20.0525H8.37505V14.365H13.625V20.0525H17.9999L17.9998 8.88162C17.9998 8.76559 18.0459 8.65432 18.128 8.57227C18.21 8.49022 18.3213 8.44413 18.4373 8.44413C18.5534 8.44413 18.6647 8.49022 18.7467 8.57227C18.8287 8.65432 18.8748 8.76559 18.8748 8.88162L18.8749 20.9274Z" stroke="#373333" stroke-width="0.4" mask="url(#path-1-outside-1_770_663)"/>
<path d="M21.0624 11.7401C20.9498 11.7403 20.8415 11.6968 20.7601 11.6189L11.0001 2.28325L1.24006 11.6189C1.15623 11.6992 1.04396 11.7428 0.927942 11.7403C0.81193 11.7377 0.701679 11.6892 0.621444 11.6054C0.541209 11.5215 0.497562 11.4093 0.500105 11.2932C0.502649 11.1772 0.551174 11.067 0.635006 10.9867L11.0001 1.07227L21.3647 10.9863C21.4279 11.0467 21.4716 11.1246 21.4901 11.21C21.5086 11.2954 21.5011 11.3844 21.4686 11.4655C21.436 11.5466 21.38 11.6161 21.3076 11.665C21.2352 11.714 21.1498 11.7401 21.0624 11.7401Z" stroke="#373333" stroke-width="0.4" mask="url(#path-1-outside-1_770_663)"/>
</g>
</g>
</svg>
