<svg width="25" height="25" viewBox="0 0 25 25" fill="none" xmlns="http://www.w3.org/2000/svg">
<path d="M8.59376 23.0607C8.47228 23.0604 8.3525 23.0321 8.24376 22.9779L1.99376 19.8529C1.86416 19.788 1.75518 19.6882 1.67902 19.5649C1.60286 19.4415 1.56252 19.2994 1.56251 19.1545V5.09196C1.56178 4.95863 1.59533 4.82734 1.65993 4.7107C1.72453 4.59405 1.81802 4.49597 1.93143 4.42585C2.04485 4.35573 2.17437 4.31593 2.30759 4.31027C2.44081 4.30461 2.57325 4.33328 2.6922 4.39352L8.9422 7.51852C9.20783 7.64977 9.37501 7.92009 9.37501 8.21696V22.2795C9.37378 22.4863 9.29108 22.6843 9.14483 22.8305C8.99858 22.9768 8.80058 23.0595 8.59376 23.0607ZM3.12501 18.6716L7.81251 21.0154V8.69821L3.12501 6.35446V18.6716ZM22.6563 23.0607C22.5348 23.0604 22.415 23.0321 22.3063 22.9779L16.0563 19.8529C15.9267 19.788 15.8177 19.6882 15.7415 19.5649C15.6654 19.4415 15.625 19.2994 15.625 19.1545V5.09196C15.6243 4.95863 15.6578 4.82734 15.7224 4.7107C15.787 4.59405 15.8805 4.49597 15.9939 4.42585C16.1073 4.35573 16.2369 4.31593 16.3701 4.31027C16.5033 4.30461 16.6357 4.33328 16.7547 4.39352L23.0047 7.51852C23.2703 7.64977 23.4375 7.92009 23.4375 8.21696V22.2795C23.4363 22.4863 23.3536 22.6843 23.2073 22.8305C23.0611 22.9768 22.8631 23.0595 22.6563 23.0607ZM17.1875 18.6716L21.875 21.0154V8.69821L17.1875 6.35446V18.6716Z" fill="#373333"/>
<path d="M12.4999 12.9313C12.2926 12.9313 12.0938 12.8493 11.9468 12.7032L9.18586 9.94069C9.04355 9.79335 8.9648 9.596 8.96658 9.39116C8.96836 9.18632 9.05053 8.99037 9.19538 8.84552C9.34023 8.70067 9.53617 8.61851 9.74101 8.61673C9.94585 8.61495 10.1432 8.6937 10.2905 8.83601L12.4999 11.0454L14.7093 8.83601C14.8566 8.6937 15.054 8.61495 15.2588 8.61673C15.4637 8.61851 15.6596 8.70067 15.8045 8.84552C15.9493 8.99037 16.0315 9.18632 16.0333 9.39116C16.035 9.596 15.9563 9.79335 15.814 9.94069L13.053 12.7032C12.9805 12.7758 12.8942 12.8334 12.7993 12.8725C12.7044 12.9117 12.6026 12.9317 12.4999 12.9313Z" fill="#373333"/>
<path d="M15.2625 10.1704C15.1081 10.1704 14.9572 10.1246 14.8288 10.0388C14.7004 9.9531 14.6003 9.83123 14.5411 9.68862C14.4819 9.54601 14.4663 9.38907 14.4963 9.2376C14.5262 9.08614 14.6004 8.94695 14.7094 8.8376C15.3 8.24541 15.625 7.46104 15.625 6.62666C15.625 5.79229 15.3 5.00791 14.7094 4.41729C13.5281 3.23604 11.4719 3.23604 10.2906 4.41729C9.70002 5.00791 9.37502 5.79229 9.37502 6.62666C9.37502 7.46104 9.70002 8.24541 10.2906 8.83604C10.433 8.98338 10.5117 9.18073 10.5099 9.38557C10.5081 9.59041 10.426 9.78636 10.2811 9.93121C10.1363 10.0761 9.94033 10.1582 9.73549 10.16C9.53065 10.1618 9.3333 10.083 9.18596 9.94072C8.74912 9.50669 8.40278 8.99026 8.16702 8.42137C7.93126 7.85249 7.81076 7.24246 7.81252 6.62666C7.81252 5.37354 8.30002 4.19854 9.18596 3.3126C10.9563 1.54229 14.0438 1.54229 15.8141 3.3126C16.7 4.19854 17.1875 5.37354 17.1875 6.62666C17.1875 7.87822 16.7 9.05635 15.8141 9.94072C15.7419 10.0135 15.6559 10.0713 15.5613 10.1107C15.4666 10.1502 15.3651 10.1704 15.2625 10.1704Z" fill="#373333"/>
<path d="M16.4062 7.40768C16.199 7.40768 16.0003 7.32537 15.8538 7.17885C15.7073 7.03234 15.6249 6.83363 15.6249 6.62643C15.6249 6.24049 15.5515 5.85768 15.4062 5.48736C15.3308 5.29566 15.3343 5.08188 15.416 4.89276C15.4976 4.70363 15.6509 4.55451 15.8421 4.47799L16.1156 4.36861C16.2339 4.32035 16.3624 4.302 16.4896 4.31518C16.6167 4.32836 16.7387 4.37267 16.8446 4.44419C16.9506 4.51571 17.0373 4.61223 17.0971 4.72523C17.1569 4.83823 17.1879 4.96421 17.1874 5.09205V6.62643C17.1874 6.83363 17.1051 7.03234 16.9586 7.17885C16.8121 7.32537 16.6134 7.40768 16.4062 7.40768Z" fill="#373333"/>
<path d="M8.59375 23.0608C8.38668 23.0604 8.1882 22.978 8.04178 22.8316C7.89536 22.6851 7.81291 22.4867 7.8125 22.2796V8.21709C7.81241 8.06125 7.85893 7.90894 7.94608 7.77975C8.03323 7.65055 8.15703 7.55037 8.30156 7.49209L8.59063 7.37647C8.78214 7.29965 8.99626 7.30173 9.18625 7.38223C9.37624 7.46273 9.52666 7.61513 9.60469 7.80615C9.7625 8.19209 9.99375 8.53897 10.2891 8.83584L12.5 11.0452L14.7094 8.83584C15.3 8.24522 15.625 7.46084 15.625 6.62647C15.625 6.41926 15.7073 6.22055 15.8538 6.07404C16.0003 5.92753 16.199 5.84521 16.4062 5.84521C16.6135 5.84521 16.8122 5.92753 16.9587 6.07404C17.1052 6.22055 17.1875 6.41926 17.1875 6.62647V19.1546C17.1875 19.3106 17.1407 19.463 17.0533 19.5923C16.9658 19.7215 16.8417 19.8215 16.6969 19.8796L8.88437 23.0046C8.79197 23.0417 8.69332 23.0608 8.59375 23.0608ZM9.375 10.1296V21.1249L15.625 18.6233V10.1296L13.0531 12.703C12.9066 12.8495 12.7079 12.9318 12.5008 12.9318C12.2936 12.9318 12.0949 12.8495 11.9484 12.703L9.375 10.1296Z" fill="#373333"/>
<path d="M12.5 7.32324C13.0393 7.32324 13.4766 6.88602 13.4766 6.34668C13.4766 5.80734 13.0393 5.37012 12.5 5.37012C11.9607 5.37012 11.5234 5.80734 11.5234 6.34668C11.5234 6.88602 11.9607 7.32324 12.5 7.32324Z" fill="#373333"/>
</svg>
