<svg width="36" height="27" viewBox="0 0 36 27" fill="none" xmlns="http://www.w3.org/2000/svg">
<path d="M8.38301 22.442V22.692H8.63301H9.94761H10.1976V22.442C10.1976 18.9825 13.4851 16.0182 17.8352 16.0182C22.1873 16.0182 25.5167 18.9842 25.5167 22.442V22.692H25.7667H27.0813H27.3313V22.442C27.3313 20.1145 26.2364 18.0432 24.4996 16.5608C25.249 16.177 26.1366 15.953 27.1026 15.953C29.9569 15.953 32.114 17.8907 32.114 20.1196V20.3696H32.364H33.236H33.486V20.1196C33.486 16.984 30.5525 14.5755 27.1026 14.5755C25.6766 14.5755 24.3512 14.9839 23.2831 15.6823C21.7324 14.7398 19.8487 14.1922 17.8352 14.1922C15.8607 14.1922 14.0172 14.7188 12.4916 15.6283C11.433 14.963 10.135 14.5755 8.74595 14.5755C5.29442 14.5755 2.3916 16.9854 2.3916 20.1196V20.3696H2.6416H3.51365H3.76365V20.1196C3.76365 17.8891 5.8936 15.953 8.74595 15.953C9.66784 15.953 10.5215 16.1571 11.2531 16.5094C9.49159 17.9957 8.38301 20.0881 8.38301 22.442ZM17.8352 3.54053C15.1499 3.54053 12.9841 5.77852 12.9841 8.4755C12.9841 11.1757 15.153 13.3663 17.8352 13.3663C20.5144 13.3663 22.7301 11.1788 22.7302 8.4755C22.7301 5.77542 20.5175 3.54053 17.8352 3.54053ZM17.8352 5.36646C19.5244 5.36646 20.9155 6.76655 20.9156 8.4755C20.9155 10.1803 19.5287 11.5403 17.8352 11.5403C16.1461 11.5403 14.7987 10.1846 14.7987 8.4755C14.7987 6.7622 16.1504 5.36646 17.8352 5.36646ZM8.74595 7.52637C6.91699 7.52637 5.44379 9.04647 5.44378 10.8768C5.44379 12.7104 6.92005 14.198 8.74595 14.198C10.5688 14.198 12.0772 12.7134 12.0772 10.8768C12.0772 9.04337 10.5719 7.52637 8.74595 7.52637ZM8.74595 8.90385C9.81984 8.90385 10.7051 9.79243 10.7051 10.8768C10.7051 11.957 9.82417 12.8205 8.74595 12.8205C7.67205 12.8205 6.81583 11.9613 6.81582 10.8768C6.81583 9.78808 7.67633 8.90385 8.74595 8.90385ZM27.1026 7.52637C25.2736 7.52637 23.8004 9.04647 23.8004 10.8768C23.8004 12.7104 25.2767 14.198 27.1026 14.198C28.9254 14.198 30.4338 12.7134 30.4338 10.8768C30.4338 9.04337 28.9285 7.52637 27.1026 7.52637ZM27.1026 8.90385C28.1765 8.90385 29.0618 9.79243 29.0618 10.8768C29.0618 11.957 28.1808 12.8205 27.1026 12.8205C26.0287 12.8205 25.1725 11.9613 25.1725 10.8768C25.1725 9.78808 26.033 8.90385 27.1026 8.90385Z" fill="#373333" stroke="#373333" stroke-width="0.5"/>
</svg>
