<svg width="24" height="24" viewBox="0 0 24 24" fill="none" xmlns="http://www.w3.org/2000/svg">
<path fill-rule="evenodd" clip-rule="evenodd" d="M14.3849 15.4455C11.7346 17.5682 7.85521 17.4011 5.39842 14.9443C2.76238 12.3083 2.76238 8.03446 5.39842 5.39842C8.03446 2.76238 12.3083 2.76238 14.9443 5.39842C17.4011 7.8552 17.5682 11.7346 15.4455 14.3849L20.6012 19.5405C20.8941 19.8334 20.8941 20.3083 20.6012 20.6012C20.3083 20.8941 19.8334 20.8941 19.5405 20.6012L14.3849 15.4455ZM6.45908 13.8837C4.40883 11.8334 4.40883 8.50933 6.45908 6.45908C8.50934 4.40883 11.8334 4.40883 13.8837 6.45908C15.9324 8.50783 15.9339 11.8285 13.8882 13.8792C13.8867 13.8807 13.8852 13.8821 13.8836 13.8837C13.8821 13.8852 13.8806 13.8867 13.8792 13.8882C11.8285 15.9339 8.50783 15.9324 6.45908 13.8837Z" fill="#373333"/>
</svg>
